# xmcd CD database file
#
# Track frame offsets:
#	150
#	22645
#	43240
#	62132
#	83260
#	102975
#	122970
#	141127
#
# Disc length: 2202 seconds
#
# Revision: 0
# Processed by: cddbd v1.5.1PL2 Copyright (c) Steve Scherf et al.
# Submitted via: CD2WAV32(JP) R3.22
#
DISCID=60089808
DTITLE=CITY of LONDON SINFONIA - LONDON SINFONIA SOUND Special Effects Theme Song Version
DYEAR=1994
DGENRE=Anime
TTITLE0=ウルトラマン
TTITLE1=レッツゴー！！ライダーキック
TTITLE2=鳥人戦隊ジェットマン
TTITLE3=進め！ゴレンジャー
TTITLE4=ウルトラセブンのうた
TTITLE5=キカイダー01
TTITLE6=ゴーゴー・キカイダー
TTITLE7=戦え！仮面ライダーV3
EXTD=
EXTT0=
EXTT1=
EXTT2=
EXTT3=
EXTT4=
EXTT5=
EXTT6=
EXTT7=
PLAYORDER=
